<svg xmlns="http://www.w3.org/2000/svg" xmlns:xlink="http://www.w3.org/1999/xlink" width="500" zoomAndPan="magnify" viewBox="0 0 375 374.999991" height="500" preserveAspectRatio="xMidYMid meet" version="1.0"><defs><g/><linearGradient x1="0" gradientTransform="matrix(0.75, 0, 0, 0.75, 0.0000045, 0)" y1="250" x2="499.999979" gradientUnits="userSpaceOnUse" y2="250" id="8bf8f316c6"><stop stop-opacity="1" stop-color="rgb(0%, 0%, 0%)" offset="0"/><stop stop-opacity="1" stop-color="rgb(0.175476%, 0.175476%, 0.175476%)" offset="0.0078125"/><stop stop-opacity="1" stop-color="rgb(0.526428%, 0.526428%, 0.526428%)" offset="0.015625"/><stop stop-opacity="1" stop-color="rgb(0.878906%, 0.878906%, 0.878906%)" offset="0.0234375"/><stop stop-opacity="1" stop-color="rgb(1.231384%, 1.231384%, 1.231384%)" offset="0.03125"/><stop stop-opacity="1" stop-color="rgb(1.583862%, 1.583862%, 1.583862%)" offset="0.0390625"/><stop stop-opacity="1" stop-color="rgb(1.93634%, 1.93634%, 1.93634%)" offset="0.046875"/><stop stop-opacity="1" stop-color="rgb(2.288818%, 2.288818%, 2.288818%)" offset="0.0546875"/><stop stop-opacity="1" stop-color="rgb(2.641296%, 2.641296%, 2.641296%)" offset="0.0625"/><stop stop-opacity="1" stop-color="rgb(2.993774%, 2.993774%, 2.993774%)" offset="0.0703125"/><stop stop-opacity="1" stop-color="rgb(3.346252%, 3.346252%, 3.346252%)" offset="0.078125"/><stop stop-opacity="1" stop-color="rgb(3.69873%, 3.69873%, 3.69873%)" offset="0.0859375"/><stop stop-opacity="1" stop-color="rgb(4.051208%, 4.051208%, 4.051208%)" offset="0.09375"/><stop stop-opacity="1" stop-color="rgb(4.402161%, 4.402161%, 4.402161%)" offset="0.101562"/><stop stop-opacity="1" stop-color="rgb(4.754639%, 4.754639%, 4.754639%)" offset="0.109375"/><stop stop-opacity="1" stop-color="rgb(5.107117%, 5.107117%, 5.107117%)" offset="0.117188"/><stop stop-opacity="1" stop-color="rgb(5.459595%, 5.459595%, 5.459595%)" offset="0.125"/><stop stop-opacity="1" stop-color="rgb(5.812073%, 5.812073%, 5.812073%)" offset="0.132812"/><stop stop-opacity="1" stop-color="rgb(6.164551%, 6.164551%, 6.164551%)" offset="0.140625"/><stop stop-opacity="1" stop-color="rgb(6.517029%, 6.517029%, 6.517029%)" offset="0.148437"/><stop stop-opacity="1" stop-color="rgb(6.869507%, 6.869507%, 6.869507%)" offset="0.15625"/><stop stop-opacity="1" stop-color="rgb(7.221985%, 7.221985%, 7.221985%)" offset="0.164062"/><stop stop-opacity="1" stop-color="rgb(7.574463%, 7.574463%, 7.574463%)" offset="0.171875"/><stop stop-opacity="1" stop-color="rgb(7.926941%, 7.926941%, 7.926941%)" offset="0.179687"/><stop stop-opacity="1" stop-color="rgb(8.277893%, 8.277893%, 8.277893%)" offset="0.1875"/><stop stop-opacity="1" stop-color="rgb(8.630371%, 8.630371%, 8.630371%)" offset="0.195312"/><stop stop-opacity="1" stop-color="rgb(8.982849%, 8.982849%, 8.982849%)" offset="0.203125"/><stop stop-opacity="1" stop-color="rgb(9.335327%, 9.335327%, 9.335327%)" offset="0.210938"/><stop stop-opacity="1" stop-color="rgb(9.687805%, 9.687805%, 9.687805%)" offset="0.21875"/><stop stop-opacity="1" stop-color="rgb(10.040283%, 10.040283%, 10.040283%)" offset="0.226562"/><stop stop-opacity="1" stop-color="rgb(10.392761%, 10.392761%, 10.392761%)" offset="0.234375"/><stop stop-opacity="1" stop-color="rgb(10.745239%, 10.745239%, 10.745239%)" offset="0.242188"/><stop stop-opacity="1" stop-color="rgb(11.097717%, 11.097717%, 11.097717%)" offset="0.25"/><stop stop-opacity="1" stop-color="rgb(11.450195%, 11.450195%, 11.450195%)" offset="0.257812"/><stop stop-opacity="1" stop-color="rgb(11.802673%, 11.802673%, 11.802673%)" offset="0.265625"/><stop stop-opacity="1" stop-color="rgb(12.155151%, 12.155151%, 12.155151%)" offset="0.273437"/><stop stop-opacity="1" stop-color="rgb(12.506104%, 12.506104%, 12.506104%)" offset="0.28125"/><stop stop-opacity="1" stop-color="rgb(12.858582%, 12.858582%, 12.858582%)" offset="0.289062"/><stop stop-opacity="1" stop-color="rgb(13.21106%, 13.21106%, 13.21106%)" offset="0.296875"/><stop stop-opacity="1" stop-color="rgb(13.563538%, 13.563538%, 13.563538%)" offset="0.304687"/><stop stop-opacity="1" stop-color="rgb(13.916016%, 13.916016%, 13.916016%)" offset="0.3125"/><stop stop-opacity="1" stop-color="rgb(14.268494%, 14.268494%, 14.268494%)" offset="0.320312"/><stop stop-opacity="1" stop-color="rgb(14.620972%, 14.620972%, 14.620972%)" offset="0.328125"/><stop stop-opacity="1" stop-color="rgb(14.97345%, 14.97345%, 14.97345%)" offset="0.335937"/><stop stop-opacity="1" stop-color="rgb(15.325928%, 15.325928%, 15.325928%)" offset="0.34375"/><stop stop-opacity="1" stop-color="rgb(15.678406%, 15.678406%, 15.678406%)" offset="0.351562"/><stop stop-opacity="1" stop-color="rgb(16.030884%, 16.030884%, 16.030884%)" offset="0.359375"/><stop stop-opacity="1" stop-color="rgb(16.381836%, 16.381836%, 16.381836%)" offset="0.367187"/><stop stop-opacity="1" stop-color="rgb(16.734314%, 16.734314%, 16.734314%)" offset="0.375"/><stop stop-opacity="1" stop-color="rgb(17.086792%, 17.086792%, 17.086792%)" offset="0.382812"/><stop stop-opacity="1" stop-color="rgb(17.43927%, 17.43927%, 17.43927%)" offset="0.390625"/><stop stop-opacity="1" stop-color="rgb(17.791748%, 17.791748%, 17.791748%)" offset="0.398438"/><stop stop-opacity="1" stop-color="rgb(18.144226%, 18.144226%, 18.144226%)" offset="0.40625"/><stop stop-opacity="1" stop-color="rgb(18.496704%, 18.496704%, 18.496704%)" offset="0.414062"/><stop stop-opacity="1" stop-color="rgb(18.849182%, 18.849182%, 18.849182%)" offset="0.421875"/><stop stop-opacity="1" stop-color="rgb(19.20166%, 19.20166%, 19.20166%)" offset="0.429688"/><stop stop-opacity="1" stop-color="rgb(19.554138%, 19.554138%, 19.554138%)" offset="0.4375"/><stop stop-opacity="1" stop-color="rgb(19.906616%, 19.906616%, 19.906616%)" offset="0.445312"/><stop stop-opacity="1" stop-color="rgb(20.257568%, 20.257568%, 20.257568%)" offset="0.453125"/><stop stop-opacity="1" stop-color="rgb(20.610046%, 20.610046%, 20.610046%)" offset="0.460938"/><stop stop-opacity="1" stop-color="rgb(20.962524%, 20.962524%, 20.962524%)" offset="0.46875"/><stop stop-opacity="1" stop-color="rgb(21.315002%, 21.315002%, 21.315002%)" offset="0.476562"/><stop stop-opacity="1" stop-color="rgb(21.66748%, 21.66748%, 21.66748%)" offset="0.484375"/><stop stop-opacity="1" stop-color="rgb(22.019958%, 22.019958%, 22.019958%)" offset="0.492188"/><stop stop-opacity="1" stop-color="rgb(22.372437%, 22.372437%, 22.372437%)" offset="0.5"/><stop stop-opacity="1" stop-color="rgb(22.724915%, 22.724915%, 22.724915%)" offset="0.507812"/><stop stop-opacity="1" stop-color="rgb(23.077393%, 23.077393%, 23.077393%)" offset="0.515625"/><stop stop-opacity="1" stop-color="rgb(23.429871%, 23.429871%, 23.429871%)" offset="0.523437"/><stop stop-opacity="1" stop-color="rgb(23.782349%, 23.782349%, 23.782349%)" offset="0.53125"/><stop stop-opacity="1" stop-color="rgb(24.134827%, 24.134827%, 24.134827%)" offset="0.539062"/><stop stop-opacity="1" stop-color="rgb(24.485779%, 24.485779%, 24.485779%)" offset="0.546875"/><stop stop-opacity="1" stop-color="rgb(24.838257%, 24.838257%, 24.838257%)" offset="0.554687"/><stop stop-opacity="1" stop-color="rgb(25.190735%, 25.190735%, 25.190735%)" offset="0.5625"/><stop stop-opacity="1" stop-color="rgb(25.543213%, 25.543213%, 25.543213%)" offset="0.570312"/><stop stop-opacity="1" stop-color="rgb(25.895691%, 25.895691%, 25.895691%)" offset="0.578125"/><stop stop-opacity="1" stop-color="rgb(26.248169%, 26.248169%, 26.248169%)" offset="0.585937"/><stop stop-opacity="1" stop-color="rgb(26.600647%, 26.600647%, 26.600647%)" offset="0.59375"/><stop stop-opacity="1" stop-color="rgb(26.953125%, 26.953125%, 26.953125%)" offset="0.601562"/><stop stop-opacity="1" stop-color="rgb(27.305603%, 27.305603%, 27.305603%)" offset="0.609375"/><stop stop-opacity="1" stop-color="rgb(27.658081%, 27.658081%, 27.658081%)" offset="0.617187"/><stop stop-opacity="1" stop-color="rgb(28.010559%, 28.010559%, 28.010559%)" offset="0.625"/><stop stop-opacity="1" stop-color="rgb(28.361511%, 28.361511%, 28.361511%)" offset="0.632812"/><stop stop-opacity="1" stop-color="rgb(28.713989%, 28.713989%, 28.713989%)" offset="0.640625"/><stop stop-opacity="1" stop-color="rgb(29.066467%, 29.066467%, 29.066467%)" offset="0.648437"/><stop stop-opacity="1" stop-color="rgb(29.418945%, 29.418945%, 29.418945%)" offset="0.65625"/><stop stop-opacity="1" stop-color="rgb(29.771423%, 29.771423%, 29.771423%)" offset="0.664062"/><stop stop-opacity="1" stop-color="rgb(30.123901%, 30.123901%, 30.123901%)" offset="0.671875"/><stop stop-opacity="1" stop-color="rgb(30.476379%, 30.476379%, 30.476379%)" offset="0.679687"/><stop stop-opacity="1" stop-color="rgb(30.828857%, 30.828857%, 30.828857%)" offset="0.6875"/><stop stop-opacity="1" stop-color="rgb(31.181335%, 31.181335%, 31.181335%)" offset="0.695312"/><stop stop-opacity="1" stop-color="rgb(31.533813%, 31.533813%, 31.533813%)" offset="0.703125"/><stop stop-opacity="1" stop-color="rgb(31.886292%, 31.886292%, 31.886292%)" offset="0.710937"/><stop stop-opacity="1" stop-color="rgb(32.237244%, 32.237244%, 32.237244%)" offset="0.71875"/><stop stop-opacity="1" stop-color="rgb(32.589722%, 32.589722%, 32.589722%)" offset="0.726562"/><stop stop-opacity="1" stop-color="rgb(32.9422%, 32.9422%, 32.9422%)" offset="0.734375"/><stop stop-opacity="1" stop-color="rgb(33.294678%, 33.294678%, 33.294678%)" offset="0.742187"/><stop stop-opacity="1" stop-color="rgb(33.647156%, 33.647156%, 33.647156%)" offset="0.75"/><stop stop-opacity="1" stop-color="rgb(33.999634%, 33.999634%, 33.999634%)" offset="0.757812"/><stop stop-opacity="1" stop-color="rgb(34.352112%, 34.352112%, 34.352112%)" offset="0.765625"/><stop stop-opacity="1" stop-color="rgb(34.70459%, 34.70459%, 34.70459%)" offset="0.773438"/><stop stop-opacity="1" stop-color="rgb(35.057068%, 35.057068%, 35.057068%)" offset="0.78125"/><stop stop-opacity="1" stop-color="rgb(35.409546%, 35.409546%, 35.409546%)" offset="0.789062"/><stop stop-opacity="1" stop-color="rgb(35.762024%, 35.762024%, 35.762024%)" offset="0.796875"/><stop stop-opacity="1" stop-color="rgb(36.114502%, 36.114502%, 36.114502%)" offset="0.804688"/><stop stop-opacity="1" stop-color="rgb(36.465454%, 36.465454%, 36.465454%)" offset="0.8125"/><stop stop-opacity="1" stop-color="rgb(36.817932%, 36.817932%, 36.817932%)" offset="0.820312"/><stop stop-opacity="1" stop-color="rgb(37.17041%, 37.17041%, 37.17041%)" offset="0.828125"/><stop stop-opacity="1" stop-color="rgb(37.522888%, 37.522888%, 37.522888%)" offset="0.835938"/><stop stop-opacity="1" stop-color="rgb(37.875366%, 37.875366%, 37.875366%)" offset="0.84375"/><stop stop-opacity="1" stop-color="rgb(38.227844%, 38.227844%, 38.227844%)" offset="0.851562"/><stop stop-opacity="1" stop-color="rgb(38.580322%, 38.580322%, 38.580322%)" offset="0.859375"/><stop stop-opacity="1" stop-color="rgb(38.9328%, 38.9328%, 38.9328%)" offset="0.867188"/><stop stop-opacity="1" stop-color="rgb(39.285278%, 39.285278%, 39.285278%)" offset="0.875"/><stop stop-opacity="1" stop-color="rgb(39.637756%, 39.637756%, 39.637756%)" offset="0.882812"/><stop stop-opacity="1" stop-color="rgb(39.990234%, 39.990234%, 39.990234%)" offset="0.890625"/><stop stop-opacity="1" stop-color="rgb(40.341187%, 40.341187%, 40.341187%)" offset="0.898438"/><stop stop-opacity="1" stop-color="rgb(40.693665%, 40.693665%, 40.693665%)" offset="0.90625"/><stop stop-opacity="1" stop-color="rgb(41.046143%, 41.046143%, 41.046143%)" offset="0.914062"/><stop stop-opacity="1" stop-color="rgb(41.398621%, 41.398621%, 41.398621%)" offset="0.921875"/><stop stop-opacity="1" stop-color="rgb(41.751099%, 41.751099%, 41.751099%)" offset="0.929688"/><stop stop-opacity="1" stop-color="rgb(42.103577%, 42.103577%, 42.103577%)" offset="0.9375"/><stop stop-opacity="1" stop-color="rgb(42.456055%, 42.456055%, 42.456055%)" offset="0.945312"/><stop stop-opacity="1" stop-color="rgb(42.808533%, 42.808533%, 42.808533%)" offset="0.953125"/><stop stop-opacity="1" stop-color="rgb(43.161011%, 43.161011%, 43.161011%)" offset="0.960938"/><stop stop-opacity="1" stop-color="rgb(43.513489%, 43.513489%, 43.513489%)" offset="0.96875"/><stop stop-opacity="1" stop-color="rgb(43.865967%, 43.865967%, 43.865967%)" offset="0.976562"/><stop stop-opacity="1" stop-color="rgb(44.216919%, 44.216919%, 44.216919%)" offset="0.984375"/><stop stop-opacity="1" stop-color="rgb(44.569397%, 44.569397%, 44.569397%)" offset="0.992188"/><stop stop-opacity="1" stop-color="rgb(44.921875%, 44.921875%, 44.921875%)" offset="1"/></linearGradient></defs><rect x="-37.5" width="450" fill="#ffffff" y="-37.499999" height="449.999989" fill-opacity="1"/><rect x="-37.5" fill="url(#8bf8f316c6)" width="450" y="-37.499999" height="449.999989"/><g fill="#ffffff" fill-opacity="1"><g transform="translate(96.741689, 208.801774)"><g><path d="M 6.59375 -1.0625 C 11 -1.757812 13.796875 -4.550781 14.984375 -9.4375 C 16.171875 -14.320312 16.765625 -21.25 16.765625 -30.21875 C 16.765625 -42.175781 16.765625 -54.09375 16.765625 -65.96875 C 16.765625 -77.851562 16.765625 -89.773438 16.765625 -101.734375 C 16.765625 -110.703125 16.171875 -117.648438 14.984375 -122.578125 C 13.796875 -127.503906 11 -130.273438 6.59375 -130.890625 L 6.59375 -131.953125 L 83.921875 -131.953125 C 85.859375 -131.953125 88.125 -132.128906 90.71875 -132.484375 C 93.3125 -132.835938 95.09375 -133.539062 96.0625 -134.59375 L 97.125 -134.59375 L 97.125 -102.53125 L 96.0625 -102.53125 C 95.445312 -107.28125 94.0625 -111.566406 91.90625 -115.390625 C 89.75 -119.222656 86.710938 -122.28125 82.796875 -124.5625 C 78.878906 -126.851562 73.890625 -128 67.828125 -128 L 32.859375 -128 L 32.859375 -77.984375 L 51.71875 -77.984375 C 56.914062 -77.984375 61.160156 -78.332031 64.453125 -79.03125 C 67.753906 -79.738281 70.285156 -80.550781 72.046875 -81.46875 C 73.804688 -82.394531 75.015625 -83.210938 75.671875 -83.921875 C 76.335938 -84.628906 76.671875 -84.984375 76.671875 -84.984375 L 77.71875 -84.984375 L 77.71875 -67.03125 L 76.671875 -67.03125 C 76.671875 -67.03125 76.335938 -67.378906 75.671875 -68.078125 C 75.015625 -68.785156 73.804688 -69.601562 72.046875 -70.53125 C 70.285156 -71.457031 67.753906 -72.269531 64.453125 -72.96875 C 61.160156 -73.675781 56.914062 -74.03125 51.71875 -74.03125 L 32.859375 -74.03125 C 32.859375 -65.144531 32.859375 -56.320312 32.859375 -47.5625 C 32.859375 -38.8125 32.832031 -30.675781 32.78125 -23.15625 C 32.738281 -15.632812 32.71875 -9.234375 32.71875 -3.953125 L 51.59375 -3.953125 C 61.1875 -3.953125 69.125 -4.921875 75.40625 -6.859375 C 81.695312 -8.796875 86.84375 -11.632812 90.84375 -15.375 C 94.851562 -19.113281 98.175781 -23.664062 100.8125 -29.03125 L 101.875 -29.03125 L 91.96875 2.640625 L 90.921875 2.640625 C 90.296875 1.929688 89.210938 1.378906 87.671875 0.984375 C 86.140625 0.585938 84.515625 0.320312 82.796875 0.1875 C 81.085938 0.0625 79.570312 0 78.25 0 L 6.59375 0 Z M 6.59375 -1.0625 "/></g></g></g><g fill="#ffffff" fill-opacity="1"><g transform="translate(168.85164, 261.169948)"><g><path d="M 16.765625 -101.734375 C 16.765625 -110.703125 16.171875 -117.648438 14.984375 -122.578125 C 13.796875 -127.503906 11 -130.273438 6.59375 -130.890625 L 6.59375 -131.953125 L 43.015625 -131.953125 L 43.015625 -130.890625 C 38.617188 -130.273438 35.828125 -127.503906 34.640625 -122.578125 C 33.453125 -117.648438 32.859375 -110.703125 32.859375 -101.734375 C 32.859375 -97.160156 32.859375 -93.597656 32.859375 -91.046875 C 32.859375 -88.492188 32.859375 -86.644531 32.859375 -85.5 C 32.859375 -84.363281 32.832031 -83.507812 32.78125 -82.9375 C 32.738281 -82.363281 32.71875 -81.789062 32.71875 -81.21875 C 32.71875 -80.644531 32.71875 -79.609375 32.71875 -78.109375 C 42.664062 -88.234375 50.648438 -96.414062 56.671875 -102.65625 C 62.703125 -108.90625 67.054688 -113.785156 69.734375 -117.296875 C 72.421875 -120.816406 73.765625 -123.457031 73.765625 -125.21875 C 73.765625 -127.15625 72.882812 -128.519531 71.125 -129.3125 C 69.363281 -130.101562 67.5625 -130.628906 65.71875 -130.890625 L 65.71875 -131.953125 L 104.109375 -131.953125 L 104.109375 -130.890625 C 100.679688 -130.367188 97.050781 -129.160156 93.21875 -127.265625 C 89.394531 -125.378906 84.953125 -122.390625 79.890625 -118.296875 C 74.835938 -114.203125 68.769531 -108.703125 61.6875 -101.796875 C 54.601562 -94.890625 46.09375 -86.160156 36.15625 -75.609375 L 41.4375 -75.609375 C 47.769531 -75.609375 53.222656 -74.285156 57.796875 -71.640625 C 62.367188 -69.003906 66.28125 -65.488281 69.53125 -61.09375 C 72.789062 -56.695312 75.628906 -51.878906 78.046875 -46.640625 C 80.460938 -41.410156 82.679688 -36.175781 84.703125 -30.9375 C 86.734375 -25.707031 88.757812 -20.890625 90.78125 -16.484375 C 92.800781 -12.085938 95.039062 -8.570312 97.5 -5.9375 C 99.96875 -3.300781 102.921875 -1.984375 106.359375 -1.984375 L 106.359375 0 L 88.546875 0 C 84.753906 0 81.710938 -1.296875 79.421875 -3.890625 C 77.140625 -6.484375 75.140625 -10.132812 73.421875 -14.84375 C 71.710938 -19.550781 69.800781 -24.984375 67.6875 -31.140625 C 66.101562 -35.890625 64.410156 -40.640625 62.609375 -45.390625 C 60.804688 -50.140625 58.78125 -54.492188 56.53125 -58.453125 C 54.289062 -62.410156 51.695312 -65.597656 48.75 -68.015625 C 45.8125 -70.441406 42.359375 -71.65625 38.390625 -71.65625 C 37.335938 -71.65625 36.367188 -71.65625 35.484375 -71.65625 C 34.609375 -71.65625 33.6875 -71.65625 32.71875 -71.65625 L 32.71875 -65.984375 C 32.71875 -61.578125 32.71875 -58.296875 32.71875 -56.140625 C 32.71875 -53.984375 32.71875 -52.46875 32.71875 -51.59375 C 32.71875 -50.71875 32.738281 -50.015625 32.78125 -49.484375 C 32.832031 -48.953125 32.859375 -48.132812 32.859375 -47.03125 C 32.859375 -45.9375 32.859375 -44.113281 32.859375 -41.5625 C 32.859375 -39.007812 32.859375 -35.226562 32.859375 -30.21875 C 32.859375 -21.25 33.453125 -14.320312 34.640625 -9.4375 C 35.828125 -4.550781 38.617188 -1.757812 43.015625 -1.0625 L 43.015625 0 L 6.59375 0 L 6.59375 -1.0625 C 11 -1.757812 13.796875 -4.550781 14.984375 -9.4375 C 16.171875 -14.320312 16.765625 -21.25 16.765625 -30.21875 C 16.765625 -42.175781 16.765625 -54.09375 16.765625 -65.96875 C 16.765625 -77.851562 16.765625 -89.773438 16.765625 -101.734375 Z M 16.765625 -101.734375 "/></g></g></g><g fill="#ffffff" fill-opacity="1"><g transform="translate(110.11365, 292.111181)"><g><path d="M 28.253906 -23.046875 C 28.253906 -24.554688 26.222656 -24.914062 25.078125 -24.914062 C 22.457031 -24.914062 20.035156 -24.160156 17.742188 -22.949219 C 15.289062 -24.160156 13.519531 -24.71875 10.769531 -24.71875 C 7.167969 -24.71875 0.195312 -23.277344 0.195312 -18.59375 C 0.195312 -14.832031 4.84375 -14.175781 7.691406 -14.175781 C 10.019531 -14.175781 12.308594 -14.566406 14.601562 -15.058594 C 14.832031 -14.730469 15.09375 -14.40625 15.355469 -14.078125 C 12.769531 -13.519531 9.984375 -12.539062 7.957031 -10.769531 C 6.417969 -9.429688 5.074219 -7.398438 5.074219 -5.304688 C 5.074219 -2.847656 6.382812 -1.210938 8.609375 -0.328125 C 8.707031 1.375 9.753906 2.488281 11.492188 2.488281 C 13.457031 2.488281 15.679688 0.6875 16.957031 -0.65625 C 17.253906 -0.980469 17.578125 -1.472656 17.90625 -1.769531 C 18.234375 -2.0625 19.019531 -2.519531 19.414062 -2.816406 C 21.28125 -4.222656 23.308594 -6.089844 23.308594 -8.578125 C 23.308594 -10.542969 21.476562 -11.359375 19.742188 -11.359375 C 14.601562 -11.359375 9.820312 -6.285156 8.707031 -1.507812 C 7.5625 -2.457031 7.136719 -3.371094 7.136719 -4.84375 C 7.136719 -6.777344 8.445312 -8.871094 9.722656 -10.214844 C 11.425781 -12.015625 13.488281 -12.929688 15.8125 -13.652344 C 16.695312 -13.0625 17.875 -12.667969 19.578125 -12.667969 C 20.199219 -12.667969 21.542969 -12.867188 21.542969 -13.617188 C 21.542969 -14.242188 20.429688 -14.46875 18.628906 -14.46875 C 17.875 -14.46875 17.121094 -14.371094 16.367188 -14.273438 C 16.105469 -14.632812 15.910156 -14.992188 15.8125 -15.417969 C 18.855469 -16.238281 21.902344 -17.1875 24.585938 -18.824219 C 25.863281 -19.609375 28.253906 -21.34375 28.253906 -23.046875 Z M 27.828125 -22.980469 C 27.828125 -21.476562 25.304688 -19.707031 24.160156 -19.054688 C 21.640625 -17.578125 18.53125 -16.53125 15.714844 -15.878906 C 15.714844 -18.300781 17.253906 -20.132812 18.953125 -21.671875 C 19.117188 -21.574219 20.132812 -20.789062 20.230469 -20.789062 C 20.265625 -20.789062 20.328125 -20.855469 20.328125 -20.886719 C 20.328125 -21.117188 19.511719 -21.804688 19.347656 -21.96875 C 20.820312 -23.078125 23.375 -24.488281 25.273438 -24.488281 C 26.15625 -24.488281 27.828125 -24.128906 27.828125 -22.980469 Z M 21.015625 -13.617188 C 21.015625 -13.191406 19.90625 -13.09375 19.542969 -13.09375 C 18.039062 -13.09375 17.253906 -13.585938 16.828125 -13.878906 C 17.710938 -14.011719 18.59375 -14.078125 19.480469 -14.078125 C 20.296875 -14.078125 21.015625 -13.945312 21.015625 -13.617188 Z M 17.316406 -22.6875 C 15.617188 -21.34375 14.109375 -19.707031 14.109375 -17.417969 C 14.109375 -16.761719 14.242188 -16.140625 14.40625 -15.515625 C 12.210938 -14.929688 9.953125 -14.601562 7.660156 -14.601562 C 5.238281 -14.601562 0.621094 -15.289062 0.621094 -18.5625 C 0.621094 -21.703125 4.15625 -23.277344 6.742188 -23.800781 C 8.085938 -24.09375 9.460938 -24.191406 10.804688 -24.191406 C 13.519531 -24.191406 14.863281 -23.867188 17.316406 -22.6875 Z M 22.492188 -8.707031 C 22.492188 -6.480469 20.394531 -4.15625 18.726562 -2.914062 C 19.640625 -4.519531 20.625 -6.546875 20.625 -8.414062 C 20.625 -8.511719 20.65625 -8.90625 20.460938 -8.90625 C 20.363281 -8.90625 20.296875 -8.707031 20.296875 -8.644531 C 20.230469 -8.25 20.199219 -7.824219 20.132812 -7.429688 C 19.742188 -5.53125 18.757812 -3.765625 17.742188 -2.128906 C 15.878906 -1.242188 14.339844 -0.589844 12.210938 -0.589844 C 10.933594 -0.589844 10.214844 -0.820312 9.035156 -1.308594 C 9.886719 -5.894531 14.863281 -10.933594 19.707031 -10.933594 C 21.015625 -10.933594 22.492188 -10.179688 22.492188 -8.707031 Z M 16.890625 -1.210938 C 15.582031 0.195312 13.554688 2.0625 11.492188 2.0625 C 9.984375 2.0625 9.003906 1.242188 9.003906 -0.292969 C 9.820312 -0.0976562 10.605469 0.03125 11.425781 0.03125 C 13.390625 0.03125 15.09375 -0.457031 16.890625 -1.210938 Z M 16.890625 -1.210938 "/></g></g></g><g fill="#ffffff" fill-opacity="1"><g transform="translate(136.167095, 292.111181)"><g><path d="M 8.152344 -5.792969 C 8.152344 -5.894531 8.054688 -5.957031 7.957031 -5.957031 C 7.660156 -5.957031 3.078125 -0.753906 1.375 -0.753906 C 1.113281 -0.753906 0.917969 -0.949219 0.917969 -1.210938 C 0.917969 -3.042969 4.679688 -6.613281 5.761719 -7.660156 C 5.859375 -7.757812 6.417969 -8.21875 6.417969 -8.378906 C 6.417969 -8.480469 6.253906 -8.609375 6.1875 -8.675781 C 5.566406 -8.511719 4.878906 -8.316406 4.257812 -8.316406 C 3.960938 -8.316406 3.667969 -8.414062 3.40625 -8.542969 C 3.699219 -8.839844 4.09375 -9.230469 4.09375 -9.691406 C 4.09375 -10.019531 3.929688 -10.410156 3.535156 -10.410156 C 2.71875 -10.410156 2.421875 -9.296875 2.421875 -8.644531 C 1.667969 -7.726562 0.882812 -6.84375 0.03125 -6.023438 C -0.03125 -5.957031 -0.230469 -5.792969 -0.230469 -5.664062 C -0.230469 -5.566406 -0.164062 -5.5 -0.0664062 -5.5 C 0.164062 -5.5 2.257812 -7.824219 2.554688 -8.152344 C 2.847656 -7.921875 3.339844 -7.726562 3.699219 -7.726562 C 4.027344 -7.726562 4.355469 -7.757812 4.679688 -7.855469 C 3.207031 -6.644531 -0.492188 -3.699219 -0.492188 -1.605469 C -0.492188 -0.6875 0.03125 -0.132812 0.949219 -0.132812 C 2.617188 -0.132812 5.925781 -3.46875 7.136719 -4.648438 C 7.269531 -4.78125 8.152344 -5.628906 8.152344 -5.792969 Z M 8.152344 -5.792969 "/></g></g></g><g fill="#ffffff" fill-opacity="1"><g transform="translate(144.055141, 292.111181)"><g><path d="M 9.953125 -5.828125 C 9.953125 -5.925781 9.855469 -5.957031 9.789062 -5.957031 C 9.691406 -5.957031 9.132812 -5.433594 9.035156 -5.335938 C 7.855469 -4.417969 6.941406 -4.125 5.46875 -4.125 C 6.023438 -5.042969 6.742188 -6.1875 6.742188 -7.300781 C 6.742188 -8.21875 6.21875 -8.773438 5.304688 -8.773438 C 2.554688 -8.773438 -2.457031 -4.8125 -2.457031 -1.929688 C -2.457031 -0.949219 -1.667969 0 -0.65625 0 C 1.277344 0 3.894531 -2.355469 5.140625 -3.730469 C 5.53125 -3.667969 5.894531 -3.667969 6.285156 -3.667969 C 6.90625 -3.667969 8.152344 -4.222656 8.644531 -4.582031 C 8.871094 -4.746094 9.953125 -5.566406 9.953125 -5.828125 Z M 6.285156 -7.367188 C 6.285156 -6.121094 4.84375 -4.09375 3.992188 -3.242188 C 3.175781 -2.421875 0.851562 -0.492188 -0.394531 -0.492188 C -0.917969 -0.492188 -1.34375 -0.851562 -1.34375 -1.40625 C -1.34375 -2.226562 0 -3.796875 0.457031 -4.355469 C 1.472656 -5.597656 3.730469 -8.117188 5.53125 -8.117188 C 5.957031 -8.117188 6.285156 -7.792969 6.285156 -7.367188 Z M 6.285156 -7.367188 "/></g></g></g><g fill="#ffffff" fill-opacity="1"><g transform="translate(153.743354, 292.111181)"><g><path d="M -0.195312 -5.925781 C -1.144531 -4.8125 -2.816406 -2.980469 -2.816406 -1.40625 C -2.816406 -0.492188 -2.195312 0 -1.308594 0 C 0.820312 0 4.355469 -3.667969 5.730469 -5.074219 C 5.859375 -5.207031 6.351562 -5.730469 6.351562 -5.859375 C 6.351562 -5.957031 6.253906 -5.992188 6.1875 -5.992188 C 5.992188 -5.992188 5.5 -5.367188 5.367188 -5.238281 C 4.417969 -4.320312 0.492188 -0.523438 -0.949219 -0.523438 C -1.308594 -0.523438 -1.636719 -0.785156 -1.636719 -1.179688 C -1.636719 -2.03125 -0.6875 -3.011719 -0.195312 -3.632812 L 5.628906 -10.707031 L 7.691406 -10.707031 L 8.019531 -11.261719 L 6.023438 -11.261719 L 9.527344 -15.453125 L 7.691406 -15.191406 L 4.386719 -11.261719 L 2.488281 -11.261719 L 2.128906 -10.707031 L 3.929688 -10.707031 Z M -0.195312 -5.925781 "/></g></g></g><g fill="#ffffff" fill-opacity="1"><g transform="translate(159.798491, 292.111181)"><g><path d="M 5.597656 -11.128906 C 5.597656 -11.492188 5.304688 -11.785156 4.945312 -11.785156 C 4.386719 -11.785156 3.863281 -11.292969 3.863281 -10.738281 C 3.863281 -10.378906 4.15625 -10.082031 4.519531 -10.082031 C 5.074219 -10.082031 5.597656 -10.574219 5.597656 -11.128906 Z M 0.851562 -7.105469 C -0.03125 -5.992188 -2.847656 -2.816406 -2.847656 -1.34375 C -2.847656 -0.554688 -2.160156 0 -1.40625 0 C 0.359375 0 4.453125 -3.929688 5.628906 -5.042969 C 5.792969 -5.207031 6.285156 -5.566406 6.285156 -5.792969 C 6.285156 -5.859375 6.253906 -5.957031 6.15625 -5.957031 C 6.023438 -5.957031 0.328125 -0.523438 -1.242188 -0.523438 C -1.539062 -0.523438 -1.703125 -0.6875 -1.703125 -0.980469 C -1.703125 -1.769531 0.292969 -4.15625 0.785156 -4.746094 L 3.929688 -8.644531 L 1.929688 -8.445312 Z M 0.851562 -7.105469 "/></g></g></g><g fill="#ffffff" fill-opacity="1"><g transform="translate(165.853628, 292.111181)"><g><path d="M 8.183594 -5.828125 C 8.183594 -5.925781 8.085938 -5.992188 7.988281 -5.992188 C 7.824219 -5.992188 7.5625 -5.628906 7.464844 -5.53125 C 6.1875 -4.058594 2.324219 -0.523438 0.359375 -0.523438 C -0.261719 -0.523438 -0.492188 -0.980469 -0.492188 -1.539062 C -0.492188 -2.914062 0.6875 -4.648438 1.539062 -5.628906 C 2.257812 -6.449219 4.191406 -8.152344 5.367188 -8.152344 C 5.53125 -8.152344 5.828125 -8.085938 5.828125 -7.855469 C 5.828125 -7.660156 5.074219 -7.757812 5.074219 -7.167969 C 5.074219 -6.84375 5.367188 -6.679688 5.664062 -6.679688 C 6.121094 -6.679688 6.582031 -7.039062 6.582031 -7.53125 C 6.582031 -8.183594 5.894531 -8.609375 5.304688 -8.609375 C 2.390625 -8.609375 -1.734375 -5.433594 -1.734375 -2.324219 C -1.734375 -0.980469 -0.980469 0.03125 0.425781 0.03125 C 2.75 0.03125 6.285156 -3.667969 7.726562 -5.269531 C 7.792969 -5.367188 8.183594 -5.761719 8.183594 -5.828125 Z M 8.183594 -5.828125 "/></g></g></g><g fill="#ffffff" fill-opacity="1"><g transform="translate(173.741674, 292.111181)"><g/></g></g><g fill="#ffffff" fill-opacity="1"><g transform="translate(182.218861, 292.111181)"><g><path d="M 41.28125 -23.113281 C 41.28125 -23.375 40.757812 -23.375 40.628906 -23.375 C 38.828125 -23.375 35.191406 -20.328125 33.882812 -19.152344 C 30.085938 -15.8125 26.484375 -12.996094 21.867188 -10.902344 C 21.769531 -10.867188 20.984375 -10.542969 20.984375 -10.34375 C 20.984375 -10.214844 21.246094 -10.179688 21.542969 -10.179688 C 22.230469 -10.179688 23.40625 -10.148438 23.40625 -9.199219 C 23.40625 -8.085938 20.753906 -4.679688 20.753906 -1.964844 C 20.753906 -0.851562 21.441406 0 22.589844 0 C 24.519531 0 27.464844 -2.945312 28.710938 -4.320312 C 28.839844 -4.484375 29.824219 -5.5 29.824219 -5.695312 C 29.824219 -5.761719 29.792969 -5.828125 29.726562 -5.828125 C 29.429688 -5.828125 25.207031 -0.882812 23.34375 -0.882812 C 22.851562 -0.882812 22.492188 -1.308594 22.492188 -1.800781 C 22.492188 -3.273438 24.980469 -6.941406 24.980469 -8.578125 C 24.980469 -9.917969 23.539062 -10.378906 22.457031 -10.605469 C 26.84375 -12.667969 30.804688 -15.355469 34.605469 -18.367188 C 36.078125 -19.542969 38.859375 -22.03125 40.527344 -22.71875 C 40.757812 -22.816406 41.28125 -22.980469 41.28125 -23.113281 Z M 29.265625 -21.148438 C 29.265625 -21.3125 29.136719 -21.410156 28.972656 -21.410156 C 28.285156 -21.410156 27.597656 -21.214844 26.910156 -21.148438 C 25.304688 -21.015625 23.667969 -20.984375 22.066406 -20.886719 C 22.066406 -24.160156 19.085938 -25.632812 16.171875 -25.632812 C 13.554688 -25.632812 10.671875 -24.453125 8.480469 -23.046875 C 6.84375 -22 5.46875 -20.558594 4.355469 -18.988281 C 3.960938 -18.429688 3.4375 -17.578125 3.273438 -17.253906 C 2.128906 -15.910156 0.03125 -13.980469 0.03125 -11.457031 C 0.03125 -9.035156 1.34375 -8.054688 3.46875 -7.300781 C 2.683594 -6.15625 2.160156 -5.105469 2.160156 -3.699219 C 2.160156 -1.015625 4.222656 0 6.644531 0 C 11.328125 0 14.273438 -2.914062 17.054688 -6.316406 C 19.25 -9.035156 21.441406 -11.785156 23.570312 -14.503906 C 24.421875 -15.582031 25.242188 -16.628906 26.089844 -17.679688 C 26.617188 -18.300781 27.105469 -18.953125 27.695312 -19.511719 C 27.828125 -19.640625 29.265625 -20.917969 29.265625 -21.148438 Z M 21.605469 -20.855469 C 13.78125 -20.855469 12.144531 -20.65625 10.867188 -20.363281 C 7.757812 -19.640625 6.285156 -18.988281 3.992188 -17.742188 C 5.402344 -19.871094 7.167969 -21.804688 9.363281 -23.113281 C 11.261719 -24.257812 14.078125 -25.175781 16.304688 -25.175781 C 18.890625 -25.175781 21.605469 -23.765625 21.605469 -20.855469 Z M 27.171875 -20.492188 C 23.539062 -17.546875 20.753906 -14.601562 18.039062 -10.804688 C 15.222656 -6.875 11.589844 -0.554688 6.121094 -0.554688 C 4.058594 -0.554688 2.617188 -1.539062 2.617188 -3.730469 C 2.617188 -5.207031 3.144531 -6.121094 4.027344 -7.269531 C 4.386719 -7.234375 4.78125 -7.203125 5.140625 -7.203125 C 7.203125 -7.203125 9.265625 -7.691406 11.164062 -8.480469 C 15.515625 -10.246094 21.671875 -14.960938 22.097656 -20.066406 Z M 21.605469 -20.035156 C 21.34375 -16.5 18.300781 -13.585938 15.648438 -11.589844 C 12.605469 -9.296875 8.96875 -7.628906 5.105469 -7.628906 C 4.878906 -7.628906 4.648438 -7.660156 4.417969 -7.660156 C 5.140625 -8.316406 5.859375 -8.804688 6.679688 -9.296875 C 6.777344 -9.363281 6.808594 -9.394531 6.808594 -9.492188 C 6.808594 -9.59375 6.742188 -9.625 6.644531 -9.625 C 5.925781 -9.625 4.355469 -8.21875 3.832031 -7.726562 C 1.800781 -8.117188 0.457031 -9.265625 0.457031 -11.425781 C 0.457031 -13.390625 1.34375 -14.796875 2.71875 -16.105469 C 2.617188 -15.8125 2.457031 -15.355469 2.457031 -15.027344 C 2.457031 -14.929688 2.421875 -14.730469 2.585938 -14.730469 C 2.78125 -14.730469 2.914062 -15.386719 2.945312 -15.484375 C 3.078125 -15.976562 3.339844 -16.46875 3.570312 -16.925781 C 6.710938 -19.117188 10.441406 -20.035156 14.242188 -20.035156 C 15.878906 -20.035156 17.515625 -19.96875 19.152344 -19.96875 C 19.96875 -19.96875 20.789062 -20.035156 21.605469 -20.035156 Z M 21.605469 -20.035156 "/></g></g></g><g fill="#ffffff" fill-opacity="1"><g transform="translate(211.905383, 292.111181)"><g><path d="M -1.929688 -0.261719 L -0.0976562 -0.359375 C 1.734375 -2.324219 3.207031 -4.679688 5.304688 -6.417969 C 5.828125 -6.84375 7.367188 -8.21875 8.117188 -8.21875 C 8.316406 -8.21875 8.480469 -8.054688 8.480469 -7.855469 C 8.480469 -6.808594 4.386719 -3.175781 4.386719 -1.40625 C 4.386719 -0.71875 5.007812 -0.0976562 5.695312 -0.0976562 C 7.988281 -0.0976562 11.066406 -3.699219 12.570312 -5.269531 C 12.703125 -5.402344 13.0625 -5.730469 13.0625 -5.894531 C 13.0625 -5.957031 13.03125 -6.089844 12.929688 -6.089844 C 12.636719 -6.089844 8.085938 -0.71875 6.253906 -0.71875 C 5.925781 -0.71875 5.792969 -0.917969 5.792969 -1.210938 C 5.792969 -2.75 9.722656 -5.859375 9.722656 -7.691406 C 9.722656 -8.316406 9.230469 -8.742188 8.644531 -8.742188 C 7.167969 -8.742188 5.566406 -7.234375 4.484375 -6.351562 C 4.679688 -6.808594 4.910156 -7.269531 4.910156 -7.757812 C 4.910156 -8.414062 4.484375 -8.90625 3.832031 -8.90625 C 2.816406 -8.90625 2.488281 -8.480469 1.800781 -7.792969 C 1.375 -7.367188 0.917969 -6.90625 0.492188 -6.480469 C 0.394531 -6.382812 -0.230469 -5.792969 -0.230469 -5.664062 C -0.230469 -5.597656 -0.195312 -5.5 -0.0976562 -5.5 C 0.328125 -5.5 2.488281 -8.28125 3.40625 -8.28125 C 3.667969 -8.28125 3.796875 -8.054688 3.796875 -7.824219 C 3.796875 -7.136719 2.09375 -5.171875 1.703125 -4.679688 Z M -1.929688 -0.261719 "/></g></g></g><g fill="#ffffff" fill-opacity="1"><g transform="translate(224.637529, 292.111181)"><g><path d="M 8.742188 -5.828125 C 8.742188 -5.894531 8.675781 -5.957031 8.609375 -5.957031 C 8.378906 -5.957031 7.824219 -5.335938 7.660156 -5.171875 C 6.253906 -3.765625 2.488281 -0.554688 0.359375 -0.554688 C -0.359375 -0.554688 -0.851562 -1.046875 -0.851562 -1.769531 C -0.851562 -2.257812 -0.621094 -2.652344 -0.359375 -3.042969 C 1.507812 -3.667969 6.054688 -5.238281 6.054688 -7.691406 C 6.054688 -8.378906 5.402344 -8.675781 4.8125 -8.675781 C 3.304688 -8.675781 0.949219 -7.070312 0 -6.023438 C -0.917969 -5.042969 -1.996094 -3.699219 -1.996094 -2.292969 C -1.996094 -1.046875 -0.949219 0 0.292969 0 C 2.816406 0 7.234375 -4.027344 8.742188 -5.828125 Z M 5.402344 -7.792969 C 5.402344 -6.941406 4.386719 -5.957031 3.796875 -5.46875 C 2.683594 -4.550781 1.242188 -4.058594 -0.0664062 -3.570312 C 0.71875 -4.78125 3.242188 -8.28125 4.84375 -8.28125 C 5.140625 -8.28125 5.402344 -8.117188 5.402344 -7.792969 Z M 5.402344 -7.792969 "/></g></g></g><g fill="#ffffff" fill-opacity="1"><g transform="translate(233.114716, 292.111181)"><g><path d="M 6.742188 -7.429688 C 6.777344 -7.53125 6.808594 -7.660156 6.808594 -7.757812 C 6.808594 -8.347656 6.023438 -8.511719 5.566406 -8.511719 C 2.75 -8.511719 -2.652344 -4.84375 -2.652344 -1.800781 C -2.652344 -0.71875 -1.832031 0 -0.785156 0 C 0.457031 0 1.964844 -1.539062 2.816406 -2.324219 C 2.683594 -1.929688 2.519531 -1.441406 2.519531 -1.046875 C 2.519531 -0.328125 3.109375 0 3.765625 0 C 5.695312 0 8.96875 -2.980469 10.28125 -4.257812 C 10.507812 -4.453125 11.71875 -5.53125 11.71875 -5.792969 C 11.71875 -5.894531 11.6875 -5.957031 11.589844 -5.957031 C 11.425781 -5.957031 5.992188 -0.554688 4.320312 -0.554688 C 4.09375 -0.554688 3.796875 -0.6875 3.796875 -0.980469 C 3.796875 -1.375 4.8125 -2.71875 5.074219 -3.042969 L 9.332031 -8.414062 L 7.464844 -8.316406 Z M 6.15625 -7.398438 C 6.15625 -5.925781 0.621094 -0.394531 -0.785156 -0.394531 C -1.113281 -0.394531 -1.40625 -0.753906 -1.40625 -1.082031 C -1.40625 -2.292969 1.015625 -4.8125 1.800781 -5.597656 C 2.617188 -6.417969 4.222656 -8.054688 5.5 -8.054688 C 5.859375 -8.054688 6.15625 -7.757812 6.15625 -7.398438 Z M 6.15625 -7.398438 "/></g></g></g><g fill="#ffffff" fill-opacity="1"><g transform="translate(244.635838, 292.111181)"><g><path d="M 6.417969 -7.039062 C 6.515625 -7.203125 6.546875 -7.464844 6.546875 -7.691406 C 6.546875 -8.21875 5.664062 -8.675781 5.007812 -8.675781 C 3.207031 -8.675781 1.375 -7.269531 0.132812 -6.089844 C -1.046875 -4.976562 -2.78125 -3.371094 -2.78125 -1.605469 C -2.78125 -0.554688 -2.226562 0 -1.179688 0 C 0.394531 0 1.867188 -1.40625 2.945312 -2.390625 C 2.816406 -2.0625 2.71875 -1.703125 2.71875 -1.34375 C 2.71875 -0.457031 3.40625 0.03125 4.222656 0.03125 C 5.859375 0.03125 8.25 -2.617188 9.230469 -3.667969 C 9.394531 -3.832031 11.292969 -5.792969 11.292969 -5.925781 C 11.292969 -6.023438 11.230469 -6.089844 11.128906 -6.089844 C 10.605469 -6.089844 6.382812 -0.457031 4.320312 -0.457031 C 3.992188 -0.457031 3.765625 -0.71875 3.765625 -1.046875 C 3.765625 -1.40625 4.15625 -1.929688 4.355469 -2.195312 L 15.027344 -16.335938 L 13.488281 -16.335938 Z M 6.023438 -7.300781 C 6.023438 -5.894531 4.355469 -4.355469 3.4375 -3.4375 C 2.617188 -2.617188 0.292969 -0.523438 -0.949219 -0.523438 C -1.375 -0.523438 -1.605469 -0.753906 -1.605469 -1.179688 C -1.605469 -2.390625 0.554688 -4.582031 1.34375 -5.402344 C 2.195312 -6.285156 3.863281 -8.152344 5.207031 -8.152344 C 5.730469 -8.152344 6.023438 -7.824219 6.023438 -7.300781 Z M 6.023438 -7.300781 "/></g></g></g><g fill="#ffffff" fill-opacity="1"><g transform="translate(255.535076, 292.111181)"><g><path d="M 9.953125 -5.828125 C 9.953125 -5.925781 9.855469 -5.957031 9.789062 -5.957031 C 9.625 -5.957031 8.28125 -4.648438 8.117188 -4.519531 C 6.417969 -3.011719 2.816406 -0.425781 0.554688 -0.425781 C 2.75 -1.507812 5.140625 -3.304688 5.140625 -5.992188 C 5.140625 -7.203125 4.484375 -8.117188 3.863281 -9.101562 C 4.191406 -9.460938 4.550781 -9.886719 4.550781 -10.410156 C 4.550781 -10.671875 4.386719 -10.96875 4.09375 -10.96875 C 3.371094 -10.96875 3.207031 -9.886719 3.175781 -9.363281 C 2.292969 -8.152344 1.144531 -7.105469 0.0976562 -6.023438 C 0.03125 -5.957031 -0.261719 -5.695312 -0.261719 -5.566406 C -0.261719 -5.5 -0.230469 -5.402344 -0.132812 -5.402344 C 0.03125 -5.402344 2.914062 -8.414062 3.304688 -8.839844 C 3.765625 -8.183594 3.894531 -7.726562 3.894531 -6.941406 C 3.894531 -4.8125 1.34375 -0.457031 -1.046875 -0.457031 C -1.472656 -0.457031 -1.996094 -0.820312 -1.996094 -1.277344 C -1.996094 -2.226562 -0.359375 -1.441406 -0.359375 -2.457031 C -0.359375 -2.847656 -0.785156 -2.980469 -1.113281 -2.980469 C -1.964844 -2.980469 -2.488281 -2.195312 -2.488281 -1.40625 C -2.488281 -0.0976562 -1.015625 0 -0.03125 0 C 2.914062 0 5.695312 -2.09375 7.921875 -3.832031 C 8.21875 -4.058594 9.953125 -5.402344 9.953125 -5.828125 Z M 9.953125 -5.828125 "/></g></g></g></svg>